#!OML:ASF H:\MichaelJackson\Top Level 1\Subject 1\Session 1\male.ASF
:FULLY-SPECIFIED
:DEGREES
1209
root 4.50019 16.8037 9.62129 4.36596 22.1368 -2.95617
lowerback -7.99877 -3.96064 5.53397
upperback -2.57252 -5.68783 0.389241
thorax 1.29912 -2.84811 -3.17159
lowerneck -5.56769 -3.90654 1.98282
upperneck 6.79928 -5.37572 -0.370002
head 3.0844 -2.63051 -0.695733
rclavicle 5.02436e-014 -4.82053e-015
rhumerus 28.7704 -40.7151 -6.14109
rradius 27.5399
rwrist -9.61325
rhand -43.809 -50.4261
rfingers 7.12502
rthumb -16.6373 280.267
lclavicle 5.02436e-014 -4.82053e-015
lhumerus -53.0011 -32.2669 116.91
lradius 48.6168
lwrist 17.1329
lhand 19.4236 18.7145
lfingers 7.12502
lthumb 43.9977 42.5982
rfemur -13.3727 1.56102 11.9425
rtibia 31.3886
rfoot -18.709 18.0276
rtoes 26.2814
lfemur -5.3104 -13.8338 -0.418922
ltibia 14.5181
lfoot -17.9799 -17.3256
ltoes 15.85
1210
root 4.49968 16.8045 9.6167 4.34499 22.1483 -2.98451
lowerback -7.97258 -3.9547 5.52381
upperback -2.57423 -5.67707 0.367866
thorax 1.28268 -2.84343 -3.18492
lowerneck -5.6022 -3.91476 1.9693
upperneck 6.85985 -5.3857 -0.386824
head 3.1115 -2.6358 -0.701432
rclavicle 8.04487e-014 -4.47266e-015
rhumerus 28.5887 -40.6185 -5.98515
rradius 27.5621
rwrist -9.66674
rhand -43.8614 -50.4836
rfingers 7.12502
rthumb -16.6878 280.214
lclavicle 8.04487e-014 -4.47266e-015
lhumerus -53.0309 -32.2898 116.908
lradius 48.6253
lwrist 17.1679
lhand 19.3885 18.7116
lfingers 7.12502
lthumb 43.965 42.6075
rfemur -13.3698 1.56486 11.9722
rtibia 31.3731
rfoot -18.6996 17.9829
rtoes 26.1981
lfemur -5.32534 -13.9256 -0.397502
ltibia 14.5372
lfoot -18.0091 -17.2154
ltoes 15.7335
1211
root 4.49917 16.8055 9.61208 4.31997 22.1622 -3.01236
lowerback -7.94322 -3.95186 5.50836
upperback -2.57691 -5.66988 0.350139
thorax 1.26406 -2.84057 -3.19154
lowerneck -5.62908 -3.91817 1.96119
upperneck 6.91378 -5.38822 -0.419145
head 3.1344 -2.63794 -0.712408
rclavicle -1.30682e-013 2.08227e-014
rhumerus 28.384 -40.4918 -5.79512
rradius 27.5862
rwrist -9.71375
rhand -43.9067 -50.5364
rfingers 7.12502
rthumb -16.7314 280.165
lclavicle -1.30682e-013 2.08227e-014
lhumerus -53.0588 -32.3108 116.913
lradius 48.6299
lwrist 17.1832
lhand 19.3539 18.7066
lfingers 7.12502
lthumb 43.9327 42.6145
rfemur -13.3592 1.56804 12.0012
rtibia 31.3521
rfoot -18.6835 17.9412
rtoes 26.1299
lfemur -5.3401 -13.9813 -0.375094
ltibia 14.5567
lfoot -18.0182 -17.1557
ltoes 15.668
1212
root 4.49864 16.8066 9.60741 4.28817 22.1756 -3.04257
lowerback -7.9143 -3.95052 5.48516
upperback -2.57608 -5.66441 0.339287
thorax 1.25066 -2.83827 -3.18718
lowerneck -5.64615 -3.91712 1.94705
upperneck 6.95182 -5.38386 -0.451134
head 3.15026 -2.637 -0.721375
rclavicle -3.93485e-014 -4.4975e-015
rhumerus 28.1628 -40.3443 -5.57449
rradius 27.6104
rwrist -9.74993
rhand -43.9459 -50.5734
rfingers 7.12502
rthumb -16.7692 280.131
lclavicle -3.93485e-014 -4.4975e-015
lhumerus -53.0766 -32.3399 116.926
lradius 48.6295
lwrist 17.1789
lhand 19.3249 18.7096
lfingers 7.12502
lthumb 43.9057 42.6276
rfemur -13.3406 1.57378 12.0322
rtibia 31.3269
rfoot -18.659 17.9035
rtoes 26.0843
lfemur -5.35193 -14.0087 -0.349444
ltibia 14.5783
lfoot -18.0131 -17.1358
ltoes 15.6395
1213
root 4.49814 16.8076 9.60268 4.24915 22.1859 -3.07526
lowerback -7.8855 -3.94842 5.45709
upperback -2.57155 -5.6578 0.332705
thorax 1.2422 -2.83514 -3.1759
lowerneck -5.64358 -3.91692 1.93558
upperneck 6.96692 -5.37997 -0.486112
head 3.15432 -2.63663 -0.730764
rclavicle -1.62941e-014 -8.29926e-015
rhumerus 27.9359 -40.1901 -5.34156
rradius 27.632
rwrist -9.77164
rhand -43.9747 -50.5852
rfingers 7.12502
rthumb -16.7969 280.121
lclavicle -1.62941e-014 -8.29926e-015
lhumerus -53.0866 -32.3843 116.949
lradius 48.6243
lwrist 17.1554
lhand 19.3031 18.7082
lfingers 7.12502
lthumb 43.8854 42.6337
rfemur -13.3155 1.58261 12.0648
rtibia 31.2996
rfoot -18.6234 17.8732
rtoes 26.0794
lfemur -5.36019 -14.0077 -0.321103
ltibia 14.6038
lfoot -17.9956 -17.1541
ltoes 15.6476
1214
root 4.49767 16.8086 9.5979 4.20346 22.1897 -3.11211
lowerback -7.85768 -3.94429 5.42916
upperback -2.56391 -5.64875 0.327493
thorax 1.23786 -2.8306 -3.16337
lowerneck -5.62237 -3.91719 1.91828
upperneck 6.96048 -5.37668 -0.507124
head 3.14797 -2.63639 -0.73371
rclavicle 8.39974e-014 3.52843e-015
rhumerus 27.7144 -40.0383 -5.11483
rradius 27.6492
rwrist -9.78936
rhand -43.9908 -50.5787
rfingers 7.12502
rthumb -16.8124 280.129
lclavicle 8.39974e-014 3.52843e-015
lhumerus -53.0933 -32.4456 116.977
lradius 48.618
lwrist 17.1147
lhand 19.2915 18.7094
lfingers 7.12502
lthumb 43.8745 42.6389
rfemur -13.2879 1.59815 12.1008
rtibia 31.2734
rfoot -18.5793 17.848
rtoes 26.1042
lfemur -5.36318 -14.0006 -0.289635
ltibia 14.6333
lfoot -17.9737 -17.1809
ltoes 15.6763
1215
root 4.49733 16.8095 9.59314 4.15359 22.182 -3.14749
lowerback -7.82897 -3.93706 5.40179
upperback -2.5558 -5.63554 0.318688
thorax 1.23346 -2.824 -3.1545
lowerneck -5.5868 -3.91776 1.90189
upperneck 6.94365 -5.37441 -0.516484
head 3.1356 -2.6363 -0.73247
rclavicle -1.06906e-013 1.04362e-015
rhumerus 27.51 -39.8947 -4.91427
rradius 27.6608
rwrist -9.80737
rhand -43.9998 -50.5632
rfingers 7.12502
rthumb -16.821 280.145
lclavicle -1.06906e-013 1.04362e-015
lhumerus -53.106 -32.5192 117.008
lradius 48.6154
lwrist 17.0622
lhand 19.2848 18.7126
lfingers 7.12502
lthumb 43.8683 42.6444
rfemur -13.2606 1.62028 12.1339
rtibia 31.2519
rfoot -18.5281 17.8307
rtoes 26.1464
lfemur -5.35689 -13.9962 -0.263
ltibia 14.6659
lfoot -17.9589 -17.1955
ltoes 15.6892
1216
root 4.49708 16.8102 9.58833 4.10296 22.1599 -3.18052
lowerback -7.79989 -3.92679 5.3773
upperback -2.54914 -5.61835 0.304877
thorax 1.22691 -2.81555 -3.15199
lowerneck -5.53878 -3.91793 1.88967
upperneck 6.91886 -5.37227 -0.517607
head 3.11825 -2.63593 -0.728781
rclavicle 6.04616e-014 1.15295e-014
rhumerus 27.3364 -39.7685 -4.7578
rradius 27.665
rwrist -9.8189
rhand -43.9945 -50.5499
rfingers 7.12502
rthumb -16.8159 280.158
lclavicle 6.04616e-014 1.15295e-014
lhumerus -53.1294 -32.5993 117.038
lradius 48.6203
lwrist 17.0031
lhand 19.2836 18.713
lfingers 7.12502
lthumb 43.8671 42.6452
rfemur -13.2403 1.65212 12.1631
rtibia 31.2385
rfoot -18.4713 17.8197
rtoes 26.199
lfemur -5.34142 -14.0058 -0.242744
ltibia 14.699
lfoot -17.956 -17.1793
ltoes 15.6745
